<?xml version="1.0" ?><svg xmlns="http://www.w3.org/2000/svg" id="a" viewBox="0 0 100 100"><defs><style>.b{stroke-width:0px;}</style></defs><path class="b" d="m89.71,35.22c-2.53,4.65-5.11,9.29-7.58,13.97-1.3,2.47-2.85,4.71-4.89,6.62-1.47,1.38-2.92,2.76-4.42,4.18,1.19,2.22,1.31,4.49.13,6.73-1.18,2.25-3.16,3.38-5.69,3.65-.08.42-.13.83-.23,1.22-.72,2.91-3.08,5.03-6.08,5.4-.46.06-.58.22-.64.65-.4,2.86-2,4.85-4.68,5.84-2.67.98-5.16.44-7.25-1.48-1.46-1.34-2.79-2.82-4.26-4.32-2.22,2.53-4.86,3.73-8.11,2.75-3.24-.98-4.93-3.29-5.3-6.66-4.13-.54-6.51-2.88-7.05-7.03-7.03-.58-9.55-9.21-3.91-13.53-1.52-2.88-3.05-5.77-4.58-8.66-1.41-2.66-2.82-5.33-4.23-7.99-.78-1.47-.65-2.29.52-3.46,5.14-5.14,10.29-10.29,15.43-15.43,1.25-1.25,2.14-1.37,3.64-.46,6.34,3.86,12.68,7.73,19.01,11.59.24.15.48.28.53.31,1.89-1.39,3.59-2.84,5.46-3.99,4.61-2.83,9.3-5.53,13.96-8.28,1.57-.93,2.4-.84,3.71.45,5.05,4.98,10.1,9.96,15.14,14.96.52.52.92,1.15,1.38,1.73v1.24Zm-42.37,39.17c1.5,1.51,2.86,2.95,4.3,4.32.71.68,1.63.74,2.54.38.88-.36,1.39-1.04,1.52-1.98.13-.89-.23-1.59-.8-2.25-.61-.7-.73-1.53-.39-2.39.33-.85.99-1.31,1.87-1.43.8-.11,1.43.25,2.03.75,1.57,1.31,3.84.47,4.15-1.52.13-.81-.15-1.51-.69-2.13-.93-1.07-.9-2.44.03-3.33.93-.89,2.25-.84,3.33.13.11.1.23.21.35.3,1.32,1,3.18.31,3.49-1.32.17-.87-.2-1.55-.8-2.15-4.69-4.69-9.38-9.38-14.06-14.06-.09-.09-.2-.15-.4-.3-.61.65-1.18,1.33-1.82,1.93-2.02,1.88-4.43,2.49-7.09,1.89-2.9-.66-4.86-2.47-5.69-5.33-.83-2.88-.26-5.53,1.88-7.72,1.66-1.69,3.4-3.32,5.1-4.97.19-.19.37-.39.6-.63-5.9-3.6-11.72-7.15-17.55-10.7-4.47,4.47-8.88,8.89-13.3,13.29-.37.37-.16.63,0,.94,2.3,4.35,4.6,8.7,6.9,13.05.11.2.23.39.4.69,2.23-2.69,4.79-4.75,8.48-3.87,3.54.84,5.66,3.19,6.22,6.79,3.7.86,6.26,2.82,6.98,6.74.03.18.35.41.56.45,2.89.52,4.8,2.19,5.72,4.93.93,2.75.34,5.24-1.66,7.36-.69.73-1.44,1.4-2.21,2.14Zm23.7-53.04c-2.03,1.22-3.75,2.26-5.47,3.29-2.15,1.28-4.27,2.61-6.46,3.8-1.67.9-3.25,1.88-4.62,3.21-3.3,3.2-6.6,6.39-9.89,9.59-1.39,1.35-1.46,3.34-.2,4.62,1.28,1.3,3.23,1.26,4.63-.11.98-.96,1.94-1.93,2.9-2.9,1.41-1.4,2.58-1.4,4,0,4.38,4.38,8.76,8.76,13.14,13.13.19.19.4.37.62.58,1.76-1.68,3.58-3.23,5.15-4.99,1.19-1.33,2.1-2.92,3.07-4.43.47-.73.78-1.57,1.2-2.33,1.68-3.08,3.36-6.15,5.07-9.21.26-.47.23-.73-.16-1.1-2.4-2.34-4.8-4.69-7.16-7.07-1.97-2-3.89-4.06-5.83-6.09ZM24.03,62.17c.54-.25,1.21-.38,1.62-.78,2.41-2.33,4.76-4.7,7.11-7.09.6-.61.67-1.56.17-2.2-.36-.46-.78-.9-1.26-1.24-.92-.66-2.27-.62-3.08.17-2.25,2.19-4.48,4.41-6.66,6.66-.76.79-.85,1.8-.37,2.81.48,1,1.29,1.5,2.47,1.66Zm4.13,4.17c.23,1.21.72,2.03,1.73,2.49,1.04.46,2.06.34,2.87-.45,2.36-2.3,4.68-4.64,7-6.99.48-.49.71-1.12.43-1.77-.78-1.83-3.05-3.04-4.8-1.33-2.1,2.05-4.18,4.12-6.21,6.24-.46.48-.68,1.2-1.02,1.82Zm18.85,1.18c-.09-1.46-.57-2.29-1.57-2.76-1.03-.49-2.14-.3-2.99.54-2.09,2.07-4.17,4.14-6.23,6.23-1.12,1.14-1.12,2.74-.05,3.8,1.05,1.05,2.69,1.04,3.81-.07,2.07-2.05,4.15-4.09,6.16-6.19.47-.49.69-1.21.88-1.55Z"/></svg>